HIERARCHY
ROOT Hips
{
 OFFSET 0.000000 0.000000 0.000000
 CHANNELS 6 Xposition Yposition Zposition Yrotation Xrotation Zrotation
 JOINT Chest
 {
  OFFSET 0.000000 9.910571 -0.011835
  CHANNELS 3 Yrotation Xrotation Zrotation
  JOINT Chest2
  {
   OFFSET 0.000000 10.789473 0.021497
   CHANNELS 3 Yrotation Xrotation Zrotation
   JOINT Chest3
   {
    OFFSET 0.000000 9.748205 0.000000
    CHANNELS 3 Yrotation Xrotation Zrotation
    JOINT Chest4
    {
     OFFSET 0.000000 9.748205 0.000000
     CHANNELS 3 Yrotation Xrotation Zrotation
     JOINT Neck
     {
      OFFSET 0.000000 13.998479 0.000000
      CHANNELS 3 Yrotation Xrotation Zrotation
      JOINT Head
      {
       OFFSET 0.000000 9.082285 0.051121
       CHANNELS 3 Yrotation Xrotation Zrotation
       End Site
       {
        OFFSET 0.000000 17.246134 0.026702
       }
      }
     }
     JOINT RightCollar
     {
      OFFSET -3.284495 7.824262 0.000000
      CHANNELS 3 Yrotation Xrotation Zrotation
      JOINT RightShoulder
      {
       OFFSET -15.534540 0.000000 0.000000
       CHANNELS 3 Yrotation Xrotation Zrotation
       JOINT RightElbow
       {
        OFFSET 0.000000 -28.251216 0.000000
        CHANNELS 3 Yrotation Xrotation Zrotation
        JOINT RightWrist
        {
         OFFSET 0.000000 -23.418114 0.012537
         CHANNELS 3 Yrotation Xrotation Zrotation
         End Site
         {
          OFFSET 0.000000 -17.723959 0.000000
         }
        }
       }
      }
     }
     JOINT LeftCollar
     {
      OFFSET 3.284495 7.824262 0.000000
      CHANNELS 3 Yrotation Xrotation Zrotation
      JOINT LeftShoulder
      {
       OFFSET 15.534540 0.000000 0.000000
       CHANNELS 3 Yrotation Xrotation Zrotation
       JOINT LeftElbow
       {
        OFFSET 0.000000 -28.251216 0.000000
        CHANNELS 3 Yrotation Xrotation Zrotation
        JOINT LeftWrist
        {
         OFFSET 0.000000 -23.418114 0.012537
         CHANNELS 3 Yrotation Xrotation Zrotation
         End Site
         {
          OFFSET 0.000000 -17.723959 0.000000
         }
        }
       }
      }
     }
    }
   }
  }
 }
 JOINT RightHip
 {
  OFFSET -8.142657 0.057990 0.005917
  CHANNELS 3 Yrotation Xrotation Zrotation
  JOINT RightKnee
  {
   OFFSET 0.000000 -49.716894 0.008478
   CHANNELS 3 Yrotation Xrotation Zrotation
   JOINT RightAnkle
   {
    OFFSET 0.000000 -43.994153 0.004166
    CHANNELS 3 Yrotation Xrotation Zrotation
    JOINT RightToe
    {
     OFFSET 0.000000 -7.619154 17.822051
     CHANNELS 3 Yrotation Xrotation Zrotation
     End Site
     {
      OFFSET 0.000000 -1.595627 7.159905
     }
    }
   }
  }
 }
 JOINT LeftHip
 {
  OFFSET 8.142657 0.057990 0.005917
  CHANNELS 3 Yrotation Xrotation Zrotation
  JOINT LeftKnee
  {
   OFFSET 0.000000 -49.716894 0.008478
   CHANNELS 3 Yrotation Xrotation Zrotation
   JOINT LeftAnkle
   {
    OFFSET 0.000000 -43.994153 0.004166
    CHANNELS 3 Yrotation Xrotation Zrotation
    JOINT LeftToe
    {
     OFFSET 0.000000 -7.619154 17.822051
     CHANNELS 3 Yrotation Xrotation Zrotation
     End Site
     {
      OFFSET 0.000000 -1.595627 7.159905
     }
    }
   }
  }
 }
}
MOTION
Frames: 8
Frame Time: 0.008333
178.959461 103.216266 301.492707 -55.060685 -6.392391 0.243968 -0.703551 2.571709 0.500143 -0.319797 1.145162 0.266326 -0.319797 1.145162 0.266326 -0.240339 0.858732 0.200337 -1.365759 16.180711 -0.863076 -2.228380 -6.138377 -1.111808 -2.291834 3.487142 9.825741 3.188671 -9.695616 -11.298668 16.082661 -2.657634 -6.571370 14.210727 -7.049439 -14.811666 4.843384 1.825071 -9.975809 0.074008 -8.306800 10.483576 4.977224 -19.524633 -6.996295 -51.288765 8.506936 7.628675 -6.589550 10.410245 -2.806337 -2.616863 -0.303337 0.018851 -5.184585 -2.545274 2.590710 0.053270 -0.120144 0.026126 3.525886 9.970545 2.397159 2.729189 0.731942 -1.787159 2.150474 -2.275119 -0.547690 -0.041984 0.087501 -0.038714
178.956063 103.216253 301.479240 -55.071215 -6.401366 0.247867 -0.698387 2.571055 0.497697 -0.317654 1.144674 0.264572 -0.317654 1.144674 0.264572 -0.238728 0.858368 0.199018 -1.361153 16.130537 -0.857458 -2.221945 -6.231505 -1.102467 -2.304136 3.485156 9.832095 3.198084 -9.695214 -11.301791 16.080783 -2.664268 -6.569833 14.197679 -7.042763 -14.817977 4.827926 1.827771 -9.976274 0.054410 -8.300224 10.476096 5.020634 -19.551711 -6.966681 -51.334177 8.487038 7.579409 -6.575354 10.416055 -2.795589 -2.613814 -0.302792 0.011720 -5.191507 -2.547091 2.580729 0.053736 -0.118303 0.027921 3.537696 9.972698 2.397163 2.735988 0.740868 -1.777135 2.138516 -2.276281 -0.553631 -0.040694 0.087158 -0.038762
178.952296 103.216685 301.464923 -55.082476 -6.415142 0.250841 -0.696948 2.572363 0.495886 -0.316776 1.145357 0.262755 -0.316776 1.145357 0.262755 -0.238066 0.858882 0.197653 -1.354031 16.078756 -0.851867 -2.210828 -6.327625 -1.094074 -2.316302 3.479909 9.840369 3.216778 -9.688687 -11.310305 16.067841 -2.669688 -6.568474 14.200753 -7.045260 -14.817567 4.824334 1.827581 -9.974429 0.033977 -8.294353 10.467537 5.005370 -19.632354 -6.921073 -51.318718 8.505832 7.491668 -6.557495 10.426318 -2.783969 -2.621079 -0.301172 0.005747 -5.194989 -2.548791 2.570450 0.053577 -0.116756 0.028975 3.545570 9.980595 2.398303 2.740858 0.747774 -1.769078 2.135486 -2.275452 -0.559172 -0.040019 0.085672 -0.038170
178.947345 103.217009 301.450422 -55.096102 -6.429564 0.253832 -0.697481 2.571862 0.494245 -0.317015 1.144860 0.261182 -0.317015 1.144860 0.261182 -0.238243 0.858510 0.196474 -1.343102 16.030453 -0.844804 -2.193153 -6.417287 -1.084366 -2.316954 3.485049 9.846861 3.223280 -9.697787 -11.318443 16.065403 -2.668166 -6.568206 14.199238 -7.042694 -14.805737 4.829247 1.834754 -9.975769 0.010734 -8.282790 10.464128 5.051143 -19.654345 -6.897261 -51.372750 8.479513 7.437766 -6.541865 10.440141 -2.776159 -2.618988 -0.305488 0.005444 -5.196939 -2.546342 2.558564 0.053605 -0.116449 0.028695 3.556767 9.991792 2.400253 2.747621 0.750872 -1.761181 2.130903 -2.274766 -0.563031 -0.039484 0.085329 -0.039233
178.942765 103.217358 301.436854 -55.108672 -6.446934 0.260075 -0.696086 2.574924 0.489268 -0.316344 1.146148 0.259075 -0.316344 1.146148 0.259075 -0.237736 0.859477 0.194893 -1.338641 15.981627 -0.837492 -2.187613 -6.507894 -1.071841 -2.327559 3.480182 9.857981 3.246768 -9.693869 -11.325626 16.048021 -2.670026 -6.570278 14.200705 -7.042241 -14.807435 4.824549 1.834197 -9.974366 -0.010486 -8.274348 10.458562 5.045316 -19.729389 -6.852579 -51.370060 8.483169 7.349596 -6.527323 10.455026 -2.769920 -2.626679 -0.306513 -0.000664 -5.186190 -2.545827 2.551527 0.052721 -0.115930 0.027487 3.575176 10.004369 2.401564 2.740927 0.756855 -1.755413 2.128728 -2.274701 -0.565495 -0.039449 0.084233 -0.040268
178.938072 103.216838 301.421558 -55.120654 -6.458512 0.261164 -0.697942 2.574385 0.487990 -0.317539 1.145704 0.258108 -0.317539 1.145704 0.258108 -0.238630 0.859144 0.194170 -1.330772 15.935843 -0.829158 -2.176101 -6.592852 -1.058690 -2.335709 3.480084 9.865659 3.271748 -9.692442 -11.333796 16.037442 -2.675873 -6.572161 14.204887 -7.036061 -14.806798 4.829873 1.835738 -9.973141 -0.031423 -8.264740 10.451219 5.085636 -19.745626 -6.822875 -51.420574 8.456842 7.293067 -6.507475 10.462584 -2.755962 -2.617764 -0.303138 -0.006664 -5.199875 -2.548132 2.545319 0.052221 -0.114516 0.025022 3.584707 10.010208 2.406291 2.745394 0.764051 -1.747864 2.125788 -2.277397 -0.571258 -0.038092 0.085850 -0.039953
178.933619 103.217166 301.405604 -55.132561 -6.477906 0.259487 -0.697458 2.577379 0.488918 -0.317542 1.147397 0.258969 -0.317542 1.147397 0.258969 -0.238635 0.860414 0.194816 -1.328282 15.892101 -0.822391 -2.174037 -6.674018 -1.046514 -2.343596 3.479540 9.875415 3.294751 -9.696091 -11.350628 16.023455 -2.680663 -6.571794 14.197262 -7.027463 -14.795815 4.830899 1.831950 -9.978130 -0.046252 -8.258486 10.442354 5.071024 -19.809311 -6.775531 -51.417543 8.470506 7.203415 -6.494848 10.477418 -2.745248 -2.620741 -0.299765 -0.004755 -5.192150 -2.547799 2.534965 0.052383 -0.115667 0.023018 3.611979 10.021973 2.420499 2.746570 0.773336 -1.747017 2.108225 -2.279723 -0.572466 -0.038396 0.086437 -0.040327
178.928071 103.217839 301.388799 -55.150853 -6.499948 0.256003 -0.696079 2.582331 0.492224 -0.317034 1.149347 0.259888 -0.317034 1.149347 0.259888 -0.238256 0.861876 0.195506 -1.328172 15.849786 -0.814991 -2.176644 -6.752516 -1.032301 -2.356141 3.485700 9.879538 3.322165 -9.699553 -11.362426 16.003121 -2.686218 -6.566666 14.198498 -7.023620 -14.797711 4.824857 1.826164 -9.981428 -0.050153 -8.251346 10.434413 5.115964 -19.814676 -6.751186 -51.466747 8.449570 7.155917 -6.476137 10.493869 -2.729223 -2.622068 -0.294392 -0.007265 -5.191523 -2.547366 2.526934 0.051676 -0.116454 0.020772 3.643502 10.038833 2.438453 2.739705 0.778675 -1.747223 2.102699 -2.280633 -0.575470 -0.037648 0.086892 -0.039679
